<?xml version="1.0" encoding="UTF-8"?>
<svg id="Layer_1" data-name="Layer 1" xmlns="http://www.w3.org/2000/svg" viewBox="0 0 586.85 90.58">
  <defs>
    <style>
      .cls-1 {
        fill: #fff;
      }
    </style>
  </defs>
  <path class="cls-1" d="M35.11,70.67v-8.58H9.73V19.91H0v50.76h35.11ZM59.48,69.12c2.11-1.56,3.7-3.66,4.76-6.31v7.86h9.3v-24.51c0-2.64-.65-4.97-1.95-6.99-1.3-2.02-3.16-3.59-5.59-4.72-2.43-1.13-5.3-1.69-8.62-1.69-1.83,0-3.58.16-5.26.47-1.68.31-3.28.77-4.79,1.37-1.51.6-2.9,1.29-4.15,2.05l.29,8.72c2.26-1.49,4.49-2.63,6.71-3.43,2.21-.79,4.64-1.19,7.28-1.19,2.11,0,3.77.5,4.97,1.51,1.2,1.01,1.8,2.31,1.8,3.89v2.52h-8.22c-4.95,0-8.87,1.05-11.75,3.14-2.88,2.09-4.33,4.99-4.33,8.69,0,2.07.48,3.93,1.44,5.59.96,1.66,2.34,2.97,4.15,3.93s3.88,1.44,6.24,1.44c3.03,0,5.6-.78,7.71-2.34ZM51.08,62.81c-1.03-.77-1.55-1.88-1.55-3.32,0-1.68.72-2.98,2.16-3.89,1.44-.91,3.58-1.37,6.42-1.37h5.98v1.44c0,1.15-.35,2.38-1.05,3.68-.7,1.3-1.73,2.39-3.1,3.28-1.37.89-2.94,1.33-4.72,1.33s-3.11-.38-4.15-1.15ZM103.17,68.98c2.16-1.9,3.77-4.46,4.83-7.68v9.37h9.44v-36.77h-9.44v17.16c0,2.45-.39,4.65-1.15,6.6-.77,1.95-1.89,3.46-3.35,4.54-1.47,1.08-3.16,1.62-5.08,1.62-2.12,0-3.74-.6-4.87-1.8-1.13-1.2-1.69-2.96-1.69-5.26v-22.86h-9.45v23c0,4.76,1.13,8.44,3.39,11.03,2.26,2.6,5.31,3.89,9.16,3.89,3.32,0,6.06-.95,8.22-2.85ZM137.13,70.67v-17.16c0-2.45.38-4.65,1.15-6.6.77-1.95,1.87-3.46,3.32-4.54,1.44-1.08,3.12-1.62,5.05-1.62,2.11,0,3.74.6,4.87,1.8,1.13,1.2,1.69,2.96,1.69,5.26v22.86h9.52v-23c0-4.76-1.14-8.44-3.42-11.03-2.28-2.6-5.35-3.89-9.19-3.89-3.32,0-6.04.95-8.18,2.85-2.14,1.9-3.74,4.46-4.79,7.68v-9.37h-9.44v36.77h9.44ZM194.48,71.46c1.23-.19,2.37-.46,3.42-.79,1.06-.34,2.04-.67,2.96-1.01l.07-8.94c-1.54.77-3.14,1.35-4.79,1.73-1.66.38-3.35.58-5.08.58-2.55,0-4.68-.47-6.38-1.41-1.71-.94-2.97-2.22-3.79-3.86-.82-1.63-1.23-3.46-1.23-5.48s.41-3.85,1.23-5.48c.82-1.63,2.08-2.93,3.79-3.89,1.71-.96,3.79-1.44,6.24-1.44,1.87,0,3.64.22,5.3.65,1.66.43,3.23,1.01,4.72,1.73l-.07-9.16c-1.06-.43-2.09-.78-3.1-1.05-1.01-.26-2.13-.48-3.35-.65-1.23-.17-2.51-.25-3.86-.25-4.18,0-7.82.85-10.92,2.56-3.1,1.71-5.49,4.05-7.17,7.03-1.68,2.98-2.52,6.34-2.52,10.09s.85,7.09,2.56,10.02c1.71,2.93,4.11,5.22,7.21,6.85,3.1,1.63,6.69,2.45,10.78,2.45,1.44,0,2.78-.1,4-.29ZM218.82,70.67v-17.16c0-2.45.38-4.65,1.15-6.6.77-1.95,1.89-3.46,3.35-4.54,1.47-1.08,3.14-1.62,5.01-1.62,2.16,0,3.81.6,4.94,1.8,1.13,1.2,1.69,2.96,1.69,5.26v22.86h9.44v-23c0-4.76-1.13-8.44-3.39-11.03-2.26-2.6-5.31-3.89-9.16-3.89-3.32,0-6.06.95-8.22,2.85-2.16,1.9-3.77,4.46-4.83,7.68v-23.36h-9.3v50.76h9.3ZM274.77,70.67c5.38,0,9.97-1.03,13.77-3.1,3.8-2.07,6.68-5,8.65-8.8,1.97-3.8,2.96-8.27,2.96-13.41s-.99-9.63-2.96-13.45c-1.97-3.82-4.86-6.78-8.65-8.87-3.8-2.09-8.39-3.14-13.77-3.14h-19.47v50.76h19.47ZM265.03,62.09V28.49h9.66c4.85,0,8.66,1.48,11.43,4.43,2.76,2.96,4.15,7.1,4.15,12.44s-1.38,9.46-4.15,12.36c-2.76,2.91-6.57,4.36-11.43,4.36h-9.66ZM324.95,69.12c2.11-1.56,3.7-3.66,4.76-6.31v7.86h9.3v-24.51c0-2.64-.65-4.97-1.95-6.99-1.3-2.02-3.16-3.59-5.59-4.72-2.43-1.13-5.3-1.69-8.62-1.69-1.83,0-3.58.16-5.26.47-1.68.31-3.28.77-4.79,1.37-1.51.6-2.9,1.29-4.15,2.05l.29,8.72c2.26-1.49,4.49-2.63,6.71-3.43,2.21-.79,4.64-1.19,7.28-1.19,2.11,0,3.77.5,4.97,1.51,1.2,1.01,1.8,2.31,1.8,3.89v2.52h-8.22c-4.95,0-8.87,1.05-11.75,3.14-2.88,2.09-4.33,4.99-4.33,8.69,0,2.07.48,3.93,1.44,5.59.96,1.66,2.34,2.97,4.15,3.93s3.88,1.44,6.24,1.44c3.03,0,5.6-.78,7.71-2.34ZM316.55,62.81c-1.03-.77-1.55-1.88-1.55-3.32,0-1.68.72-2.98,2.16-3.89,1.44-.91,3.58-1.37,6.42-1.37h5.98v1.44c0,1.15-.35,2.38-1.05,3.68-.7,1.3-1.73,2.39-3.1,3.28-1.37.89-2.94,1.33-4.72,1.33s-3.11-.38-4.15-1.15ZM357.97,70.67v-15.72c0-4.08.87-7.2,2.6-9.34,1.73-2.14,4.06-3.21,6.99-3.21,1.39,0,2.69.19,3.89.58v-8.94c-.63-.19-1.24-.32-1.84-.4-.6-.07-1.26-.11-1.98-.11-2.31,0-4.28.81-5.91,2.42-1.63,1.61-2.88,3.86-3.75,6.74v-8.8h-9.44v36.77h9.44ZM386.88,70.67v-11.9l3.39-3.24,10.96,15.14h11.18l-15.72-21.49,15.43-15.28h-11.82l-13.41,13.05v-27.04h-9.3v50.76h9.3ZM427.62,70.67V19.91h-9.37v50.76h9.37ZM442.04,84.37c3.46,0,6.3-.71,8.51-2.13,2.21-1.42,4.04-3.88,5.48-7.39l16.87-40.95h-9.66l-9.95,25.74-10.17-25.74h-9.66l15.14,36.7-.79,1.87c-.48,1.25-1.14,2.16-1.98,2.74-.84.58-2.1.86-3.79.86h-7.84v8.29h7.84Z"/>
  <path class="cls-1" d="M542.1,90.58c-.74,0-1.45-.44-1.79-1.12-.34-.67-.27-1.41.18-2.03l21.28-29.3-37.27,15.25c-.25.11-.52.17-.8.17-.87,0-1.65-.59-1.9-1.43-.25-.84.07-1.7.82-2.19l32.77-19.35-57.7-3.32c-1.22-.07-1.86-1.04-1.86-1.97s.64-1.9,1.86-1.97l57.73-3.32-32.78-19.34c-.75-.49-1.07-1.35-.82-2.19s1.03-1.43,1.9-1.43c.28,0,.54.06.8.17l37.26,15.24-21.28-29.29c-.45-.62-.52-1.38-.18-2.03.35-.68,1.05-1.12,1.79-1.12.52,0,1,.21,1.38.6l42.42,42.41c.63.63.94,1.45.94,2.27s-.31,1.65-.94,2.27l-42.43,42.43c-.39.39-.87.59-1.38.59Z"/>
</svg>